<!DOCTYPE svg PUBLIC "-//W3C//DTD SVG 1.1//EN" "http://www.w3.org/Graphics/SVG/1.1/DTD/svg11.dtd">
<svg xmlns="http://www.w3.org/2000/svg" xmlns:xlink="http://www.w3.org/1999/xlink" width="881px" height="358px"
     version="1.1">
    <defs>
        <clipPath id="mx-clip-34-26-121-29-0">
            <rect x="34" y="26" width="121" height="29"/>
        </clipPath>
        <clipPath id="mx-clip-4-26-21-29-0">
            <rect x="4" y="26" width="21" height="29"/>
        </clipPath>
        <clipPath id="mx-clip-34-61-121-25-0">
            <rect x="34" y="61" width="121" height="25"/>
        </clipPath>
        <clipPath id="mx-clip-34-87-121-25-0">
            <rect x="34" y="87" width="121" height="25"/>
        </clipPath>
        <clipPath id="mx-clip-34-113-121-25-0">
            <rect x="34" y="113" width="121" height="25"/>
        </clipPath>
        <clipPath id="mx-clip-34-139-121-25-0">
            <rect x="34" y="139" width="121" height="25"/>
        </clipPath>
        <clipPath id="mx-clip-34-165-121-25-0">
            <rect x="34" y="165" width="121" height="25"/>
        </clipPath>
        <clipPath id="mx-clip-274-149-121-29-0">
            <rect x="274" y="149" width="121" height="29"/>
        </clipPath>
        <clipPath id="mx-clip-244-149-21-29-0">
            <rect x="244" y="149" width="21" height="29"/>
        </clipPath>
        <clipPath id="mx-clip-274-184-121-25-0">
            <rect x="274" y="184" width="121" height="25"/>
        </clipPath>
        <clipPath id="mx-clip-274-210-121-25-0">
            <rect x="274" y="210" width="121" height="25"/>
        </clipPath>
        <clipPath id="mx-clip-274-236-121-25-0">
            <rect x="274" y="236" width="121" height="25"/>
        </clipPath>
        <clipPath id="mx-clip-34-265-121-29-0">
            <rect x="34" y="265" width="121" height="29"/>
        </clipPath>
        <clipPath id="mx-clip-4-265-21-29-0">
            <rect x="4" y="265" width="21" height="29"/>
        </clipPath>
        <clipPath id="mx-clip-34-300-121-25-0">
            <rect x="34" y="300" width="121" height="25"/>
        </clipPath>
        <clipPath id="mx-clip-34-326-121-25-0">
            <rect x="34" y="326" width="121" height="25"/>
        </clipPath>
        <clipPath id="mx-clip-754-229-121-29-0">
            <rect x="754" y="229" width="121" height="29"/>
        </clipPath>
        <clipPath id="mx-clip-724-229-21-29-0">
            <rect x="724" y="229" width="21" height="29"/>
        </clipPath>
        <clipPath id="mx-clip-754-264-121-25-0">
            <rect x="754" y="264" width="121" height="25"/>
        </clipPath>
        <clipPath id="mx-clip-754-290-121-25-0">
            <rect x="754" y="290" width="121" height="25"/>
        </clipPath>
        <clipPath id="mx-clip-754-68-121-29-0">
            <rect x="754" y="68" width="121" height="29"/>
        </clipPath>
        <clipPath id="mx-clip-724-68-21-29-0">
            <rect x="724" y="68" width="21" height="29"/>
        </clipPath>
        <clipPath id="mx-clip-754-103-121-25-0">
            <rect x="754" y="103" width="121" height="25"/>
        </clipPath>
        <clipPath id="mx-clip-754-129-121-25-0">
            <rect x="754" y="129" width="121" height="25"/>
        </clipPath>
        <clipPath id="mx-clip-514-228-121-29-0">
            <rect x="514" y="228" width="121" height="29"/>
        </clipPath>
        <clipPath id="mx-clip-484-228-21-29-0">
            <rect x="484" y="228" width="21" height="29"/>
        </clipPath>
        <clipPath id="mx-clip-514-263-121-25-0">
            <rect x="514" y="263" width="121" height="25"/>
        </clipPath>
        <clipPath id="mx-clip-514-110-121-29-0">
            <rect x="514" y="110" width="121" height="29"/>
        </clipPath>
        <clipPath id="mx-clip-484-110-21-29-0">
            <rect x="484" y="110" width="21" height="29"/>
        </clipPath>
        <clipPath id="mx-clip-514-145-121-25-0">
            <rect x="514" y="145" width="121" height="25"/>
        </clipPath>
    </defs>
    <g transform="translate(0.5,0.5)">
        <rect x="0" y="0" width="160" height="196" fill="#ffffff" stroke="#000000" pointer-events="none"/>
        <path d="M 0 26 L 0 0 L 160 0 L 160 26 Z" fill="#e0e0e0" stroke="#000000" stroke-miterlimit="10"
              pointer-events="none"/>
        <g fill="#000000" font-family="Helvetica" text-anchor="middle" font-size="12px">
            <text x="78.91" y="16.5">user</text>
        </g>
        <path d="M 0 26 M 160 26 M 160 56 L 0 56" fill="none" stroke="#000000" stroke-miterlimit="10"
              pointer-events="none"/>
        <g fill="#000000" font-family="Helvetica" font-weight="bold" text-decoration="underline"
           clip-path="url(#mx-clip-34-26-121-29-0)" font-size="12px">
            <text x="35.5" y="43.91">id</text>
        </g>
        <path d="M 0 26 M 30 26 L 30 56 M 0 56" fill="none" stroke="#000000" stroke-miterlimit="10"
              pointer-events="none"/>
        <g fill="#000000" font-family="Helvetica" clip-path="url(#mx-clip-4-26-21-29-0)" font-size="12px">
            <text x="5.5" y="43.91">PK</text>
        </g>
        <path d="M 0 56 M 160 56 M 160 82 M 0 82" fill="none" stroke="#000000" stroke-miterlimit="10"
              pointer-events="none"/>
        <g fill="#000000" font-family="Helvetica" clip-path="url(#mx-clip-34-61-121-25-0)" font-size="12px">
            <text x="35.5" y="73.5">username</text>
        </g>
        <path d="M 0 56 M 30 56 L 30 82 M 0 82" fill="none" stroke="#000000" stroke-miterlimit="10"
              pointer-events="none"/>
        <path d="M 0 82 M 160 82 M 160 108 M 0 108" fill="none" stroke="#000000" stroke-miterlimit="10"
              pointer-events="none"/>
        <g fill="#000000" font-family="Helvetica" clip-path="url(#mx-clip-34-87-121-25-0)" font-size="12px">
            <text x="35.5" y="99.5">email</text>
        </g>
        <path d="M 0 82 M 30 82 L 30 108 M 0 108" fill="none" stroke="#000000" stroke-miterlimit="10"
              pointer-events="none"/>
        <path d="M 0 108 M 160 108 M 160 134 M 0 134" fill="none" stroke="#000000" stroke-miterlimit="10"
              pointer-events="none"/>
        <g fill="#000000" font-family="Helvetica" clip-path="url(#mx-clip-34-113-121-25-0)" font-size="12px">
            <text x="35.5" y="125.5">password</text>
        </g>
        <path d="M 0 108 M 30 108 L 30 134 M 0 134" fill="none" stroke="#000000" stroke-miterlimit="10"
              pointer-events="none"/>
        <path d="M 0 134 M 160 134 M 160 160 M 0 160" fill="none" stroke="#000000" stroke-miterlimit="10"
              pointer-events="none"/>
        <g fill="#000000" font-family="Helvetica" clip-path="url(#mx-clip-34-139-121-25-0)" font-size="12px">
            <text x="35.5" y="151.5">first_name</text>
        </g>
        <path d="M 0 134 M 30 134 L 30 160 M 0 160" fill="none" stroke="#000000" stroke-miterlimit="10"
              pointer-events="none"/>
        <path d="M 0 160 M 160 160 M 160 186 M 0 186" fill="none" stroke="#000000" stroke-miterlimit="10"
              pointer-events="none"/>
        <g fill="#000000" font-family="Helvetica" clip-path="url(#mx-clip-34-165-121-25-0)" font-size="12px">
            <text x="35.5" y="177.5">last_name</text>
        </g>
        <path d="M 0 160 M 30 160 L 30 186 M 0 186" fill="none" stroke="#000000" stroke-miterlimit="10"
              pointer-events="none"/>
        <path d="M 0 186 M 160 186 M 160 196 M 0 196" fill="none" stroke="#000000" stroke-miterlimit="10"
              pointer-events="none"/>
        <path d="M 0 186 M 30 186 L 30 196 M 0 196" fill="none" stroke="#000000" stroke-miterlimit="10"
              pointer-events="none"/>
        <rect x="240" y="123" width="160" height="144" fill="#ffffff" stroke="#000000" pointer-events="none"/>
        <path d="M 240 149 L 240 123 L 400 123 L 400 149 Z" fill="#e0e0e0" stroke="#000000" stroke-miterlimit="10"
              pointer-events="none"/>
        <g fill="#000000" font-family="Helvetica" text-anchor="middle" font-size="12px">
            <text x="318.91" y="139.5">account</text>
        </g>
        <path d="M 240 149 M 400 149 M 400 179 L 240 179" fill="none" stroke="#000000" stroke-miterlimit="10"
              pointer-events="none"/>
        <g fill="#000000" font-family="Helvetica" font-weight="bold" text-decoration="underline"
           clip-path="url(#mx-clip-274-149-121-29-0)" font-size="12px">
            <text x="275.5" y="166.91">id</text>
        </g>
        <path d="M 240 149 M 270 149 L 270 179 M 240 179" fill="none" stroke="#000000" stroke-miterlimit="10"
              pointer-events="none"/>
        <g fill="#000000" font-family="Helvetica" clip-path="url(#mx-clip-244-149-21-29-0)" font-size="12px">
            <text x="245.5" y="166.91">PK</text>
        </g>
        <path d="M 240 179 M 400 179 M 400 205 M 240 205" fill="none" stroke="#000000" stroke-miterlimit="10"
              pointer-events="none"/>
        <g fill="#000000" font-family="Helvetica" clip-path="url(#mx-clip-274-184-121-25-0)" font-size="12px">
            <text x="275.5" y="196.5">title</text>
        </g>
        <path d="M 240 179 M 270 179 L 270 205 M 240 205" fill="none" stroke="#000000" stroke-miterlimit="10"
              pointer-events="none"/>
        <path d="M 240 205 M 400 205 M 400 231 M 240 231" fill="none" stroke="#000000" stroke-miterlimit="10"
              pointer-events="none"/>
        <g fill="#000000" font-family="Helvetica" clip-path="url(#mx-clip-274-210-121-25-0)" font-size="12px">
            <text x="275.5" y="222.5">description</text>
        </g>
        <path d="M 240 205 M 270 205 L 270 231 M 240 231" fill="none" stroke="#000000" stroke-miterlimit="10"
              pointer-events="none"/>
        <path d="M 240 231 M 400 231 M 400 257 M 240 257" fill="none" stroke="#000000" stroke-miterlimit="10"
              pointer-events="none"/>
        <g fill="#000000" font-family="Helvetica" clip-path="url(#mx-clip-274-236-121-25-0)" font-size="12px">
            <text x="275.5" y="248.5">amount</text>
        </g>
        <path d="M 240 231 M 270 231 L 270 257 M 240 257" fill="none" stroke="#000000" stroke-miterlimit="10"
              pointer-events="none"/>
        <path d="M 240 257 M 400 257 M 400 267 M 240 267" fill="none" stroke="#000000" stroke-miterlimit="10"
              pointer-events="none"/>
        <path d="M 240 257 M 270 257 L 270 267 M 240 267" fill="none" stroke="#000000" stroke-miterlimit="10"
              pointer-events="none"/>
        <rect x="0" y="239" width="160" height="118" fill="#ffffff" stroke="#000000" pointer-events="none"/>
        <path d="M 0 265 L 0 239 L 160 239 L 160 265 Z" fill="#e0e0e0" stroke="#000000" stroke-miterlimit="10"
              pointer-events="none"/>
        <g fill="#000000" font-family="Helvetica" text-anchor="middle" font-size="12px">
            <text x="78.91" y="255.5">currency</text>
        </g>
        <path d="M 0 265 M 160 265 M 160 295 L 0 295" fill="none" stroke="#000000" stroke-miterlimit="10"
              pointer-events="none"/>
        <g fill="#000000" font-family="Helvetica" font-weight="bold" text-decoration="underline"
           clip-path="url(#mx-clip-34-265-121-29-0)" font-size="12px">
            <text x="35.5" y="282.91">id</text>
        </g>
        <path d="M 0 265 M 30 265 L 30 295 M 0 295" fill="none" stroke="#000000" stroke-miterlimit="10"
              pointer-events="none"/>
        <g fill="#000000" font-family="Helvetica" clip-path="url(#mx-clip-4-265-21-29-0)" font-size="12px">
            <text x="5.5" y="282.91">PK</text>
        </g>
        <path d="M 0 295 M 160 295 M 160 321 M 0 321" fill="none" stroke="#000000" stroke-miterlimit="10"
              pointer-events="none"/>
        <g fill="#000000" font-family="Helvetica" clip-path="url(#mx-clip-34-300-121-25-0)" font-size="12px">
            <text x="35.5" y="312.5">title</text>
        </g>
        <path d="M 0 295 M 30 295 L 30 321 M 0 321" fill="none" stroke="#000000" stroke-miterlimit="10"
              pointer-events="none"/>
        <path d="M 0 321 M 160 321 M 160 347 M 0 347" fill="none" stroke="#000000" stroke-miterlimit="10"
              pointer-events="none"/>
        <g fill="#000000" font-family="Helvetica" clip-path="url(#mx-clip-34-326-121-25-0)" font-size="12px">
            <text x="35.5" y="338.5">iso4217</text>
        </g>
        <path d="M 0 321 M 30 321 L 30 347 M 0 347" fill="none" stroke="#000000" stroke-miterlimit="10"
              pointer-events="none"/>
        <path d="M 0 347 M 160 347 M 160 357 M 0 357" fill="none" stroke="#000000" stroke-miterlimit="10"
              pointer-events="none"/>
        <path d="M 0 347 M 30 347 L 30 357 M 0 357" fill="none" stroke="#000000" stroke-miterlimit="10"
              pointer-events="none"/>
        <path d="M 160 98 L 180 98 Q 190 98 192.02 107.79 L 207.98 185.21 Q 210 195 220 195 L 240 195" fill="none"
              stroke="#000000" stroke-miterlimit="10" pointer-events="none"/>
        <ellipse cx="228" cy="195" rx="3" ry="3" fill="#ffffff" stroke="#000000" pointer-events="none"/>
        <path d="M 240 191 L 232 195 L 240 199" fill="none" stroke="#000000" stroke-miterlimit="10"
              pointer-events="none"/>
        <path d="M 160 298 L 180 298 Q 190 298 191.91 288.18 L 208.09 204.82 Q 210 195 220 195 L 240 195" fill="none"
              stroke="#000000" stroke-miterlimit="10" pointer-events="none"/>
        <ellipse cx="228" cy="195" rx="3" ry="3" fill="#ffffff" stroke="#000000" pointer-events="none"/>
        <path d="M 240 191 L 232 195 L 240 199" fill="none" stroke="#000000" stroke-miterlimit="10"
              pointer-events="none"/>
        <rect x="720" y="203" width="160" height="118" fill="#ffffff" stroke="#000000" pointer-events="none"/>
        <path d="M 720 229 L 720 203 L 880 203 L 880 229 Z" fill="#e0e0e0" stroke="#000000" stroke-miterlimit="10"
              pointer-events="none"/>
        <g fill="#000000" font-family="Helvetica" text-anchor="middle" font-size="12px">
            <text x="798.91" y="219.5">income_category</text>
        </g>
        <path d="M 720 229 M 880 229 M 880 259 L 720 259" fill="none" stroke="#000000" stroke-miterlimit="10"
              pointer-events="none"/>
        <g fill="#000000" font-family="Helvetica" font-weight="bold" text-decoration="underline"
           clip-path="url(#mx-clip-754-229-121-29-0)" font-size="12px">
            <text x="755.5" y="246.91">id</text>
        </g>
        <path d="M 720 229 M 750 229 L 750 259 M 720 259" fill="none" stroke="#000000" stroke-miterlimit="10"
              pointer-events="none"/>
        <g fill="#000000" font-family="Helvetica" clip-path="url(#mx-clip-724-229-21-29-0)" font-size="12px">
            <text x="725.5" y="246.91">PK</text>
        </g>
        <path d="M 720 259 M 880 259 M 880 285 M 720 285" fill="none" stroke="#000000" stroke-miterlimit="10"
              pointer-events="none"/>
        <g fill="#000000" font-family="Helvetica" clip-path="url(#mx-clip-754-264-121-25-0)" font-size="12px">
            <text x="755.5" y="276.5">title</text>
        </g>
        <path d="M 720 259 M 750 259 L 750 285 M 720 285" fill="none" stroke="#000000" stroke-miterlimit="10"
              pointer-events="none"/>
        <path d="M 720 285 M 880 285 M 880 311 M 720 311" fill="none" stroke="#000000" stroke-miterlimit="10"
              pointer-events="none"/>
        <g fill="#000000" font-family="Helvetica" clip-path="url(#mx-clip-754-290-121-25-0)" font-size="12px">
            <text x="755.5" y="302.5">description</text>
        </g>
        <path d="M 720 285 M 750 285 L 750 311 M 720 311" fill="none" stroke="#000000" stroke-miterlimit="10"
              pointer-events="none"/>
        <path d="M 720 311 M 880 311 M 880 321 M 720 321" fill="none" stroke="#000000" stroke-miterlimit="10"
              pointer-events="none"/>
        <path d="M 720 311 M 750 311 L 750 321 M 720 321" fill="none" stroke="#000000" stroke-miterlimit="10"
              pointer-events="none"/>
        <rect x="720" y="42" width="160" height="118" fill="#ffffff" stroke="#000000" pointer-events="none"/>
        <path d="M 720 68 L 720 42 L 880 42 L 880 68 Z" fill="#e0e0e0" stroke="#000000" stroke-miterlimit="10"
              pointer-events="none"/>
        <g fill="#000000" font-family="Helvetica" text-anchor="middle" font-size="12px">
            <text x="798.91" y="58.5">expenditure_category</text>
        </g>
        <path d="M 720 68 M 880 68 M 880 98 L 720 98" fill="none" stroke="#000000" stroke-miterlimit="10"
              pointer-events="none"/>
        <g fill="#000000" font-family="Helvetica" font-weight="bold" text-decoration="underline"
           clip-path="url(#mx-clip-754-68-121-29-0)" font-size="12px">
            <text x="755.5" y="85.91">id</text>
        </g>
        <path d="M 720 68 M 750 68 L 750 98 M 720 98" fill="none" stroke="#000000" stroke-miterlimit="10"
              pointer-events="none"/>
        <g fill="#000000" font-family="Helvetica" clip-path="url(#mx-clip-724-68-21-29-0)" font-size="12px">
            <text x="725.5" y="85.91">PK</text>
        </g>
        <path d="M 720 98 M 880 98 M 880 124 M 720 124" fill="none" stroke="#000000" stroke-miterlimit="10"
              pointer-events="none"/>
        <g fill="#000000" font-family="Helvetica" clip-path="url(#mx-clip-754-103-121-25-0)" font-size="12px">
            <text x="755.5" y="115.5">title</text>
        </g>
        <path d="M 720 98 M 750 98 L 750 124 M 720 124" fill="none" stroke="#000000" stroke-miterlimit="10"
              pointer-events="none"/>
        <path d="M 720 124 M 880 124 M 880 150 M 720 150" fill="none" stroke="#000000" stroke-miterlimit="10"
              pointer-events="none"/>
        <g fill="#000000" font-family="Helvetica" clip-path="url(#mx-clip-754-129-121-25-0)" font-size="12px">
            <text x="755.5" y="141.5">description</text>
        </g>
        <path d="M 720 124 M 750 124 L 750 150 M 720 150" fill="none" stroke="#000000" stroke-miterlimit="10"
              pointer-events="none"/>
        <path d="M 720 150 M 880 150 M 880 160 M 720 160" fill="none" stroke="#000000" stroke-miterlimit="10"
              pointer-events="none"/>
        <path d="M 720 150 M 750 150 L 750 160 M 720 160" fill="none" stroke="#000000" stroke-miterlimit="10"
              pointer-events="none"/>
        <rect x="480" y="202" width="160" height="92" fill="#ffffff" stroke="#000000" pointer-events="none"/>
        <path d="M 480 228 L 480 202 L 640 202 L 640 228 Z" fill="#e0e0e0" stroke="#000000" stroke-miterlimit="10"
              pointer-events="none"/>
        <g fill="#000000" font-family="Helvetica" text-anchor="middle" font-size="12px">
            <text x="558.91" y="218.5">account_income</text>
        </g>
        <path d="M 480 228 M 640 228 M 640 258 L 480 258" fill="none" stroke="#000000" stroke-miterlimit="10"
              pointer-events="none"/>
        <g fill="#000000" font-family="Helvetica" font-weight="bold" text-decoration="underline"
           clip-path="url(#mx-clip-514-228-121-29-0)" font-size="12px">
            <text x="515.5" y="245.91">id</text>
        </g>
        <path d="M 480 228 M 510 228 L 510 258 M 480 258" fill="none" stroke="#000000" stroke-miterlimit="10"
              pointer-events="none"/>
        <g fill="#000000" font-family="Helvetica" clip-path="url(#mx-clip-484-228-21-29-0)" font-size="12px">
            <text x="485.5" y="245.91">PK</text>
        </g>
        <path d="M 480 258 M 640 258 M 640 284 M 480 284" fill="none" stroke="#000000" stroke-miterlimit="10"
              pointer-events="none"/>
        <g fill="#000000" font-family="Helvetica" clip-path="url(#mx-clip-514-263-121-25-0)" font-size="12px">
            <text x="515.5" y="275.5">amount</text>
        </g>
        <path d="M 480 258 M 510 258 L 510 284 M 480 284" fill="none" stroke="#000000" stroke-miterlimit="10"
              pointer-events="none"/>
        <path d="M 480 284 M 640 284 M 640 294 M 480 294" fill="none" stroke="#000000" stroke-miterlimit="10"
              pointer-events="none"/>
        <path d="M 480 284 M 510 284 L 510 294 M 480 294" fill="none" stroke="#000000" stroke-miterlimit="10"
              pointer-events="none"/>
        <rect x="480" y="84" width="160" height="92" fill="#ffffff" stroke="#000000" pointer-events="none"/>
        <path d="M 480 110 L 480 84 L 640 84 L 640 110 Z" fill="#e0e0e0" stroke="#000000" stroke-miterlimit="10"
              pointer-events="none"/>
        <g fill="#000000" font-family="Helvetica" text-anchor="middle" font-size="12px">
            <text x="558.91" y="100.5">account_expenditure</text>
        </g>
        <path d="M 480 110 M 640 110 M 640 140 L 480 140" fill="none" stroke="#000000" stroke-miterlimit="10"
              pointer-events="none"/>
        <g fill="#000000" font-family="Helvetica" font-weight="bold" text-decoration="underline"
           clip-path="url(#mx-clip-514-110-121-29-0)" font-size="12px">
            <text x="515.5" y="127.91">id</text>
        </g>
        <path d="M 480 110 M 510 110 L 510 140 M 480 140" fill="none" stroke="#000000" stroke-miterlimit="10"
              pointer-events="none"/>
        <g fill="#000000" font-family="Helvetica" clip-path="url(#mx-clip-484-110-21-29-0)" font-size="12px">
            <text x="485.5" y="127.91">PK</text>
        </g>
        <path d="M 480 140 M 640 140 M 640 166 M 480 166" fill="none" stroke="#000000" stroke-miterlimit="10"
              pointer-events="none"/>
        <g fill="#000000" font-family="Helvetica" clip-path="url(#mx-clip-514-145-121-25-0)" font-size="12px">
            <text x="515.5" y="157.5">amount</text>
        </g>
        <path d="M 480 140 M 510 140 L 510 166 M 480 166" fill="none" stroke="#000000" stroke-miterlimit="10"
              pointer-events="none"/>
        <path d="M 480 166 M 640 166 M 640 176 M 480 176" fill="none" stroke="#000000" stroke-miterlimit="10"
              pointer-events="none"/>
        <path d="M 480 166 M 510 166 L 510 176 M 480 176" fill="none" stroke="#000000" stroke-miterlimit="10"
              pointer-events="none"/>
        <path d="M 720 101 L 700 101 Q 690 101 684.32 109.23 L 675.68 121.77 Q 670 130 660 130 L 640 130" fill="none"
              stroke="#000000" stroke-miterlimit="10" pointer-events="none"/>
        <ellipse cx="652" cy="130" rx="3" ry="3" fill="#ffffff" stroke="#000000" pointer-events="none"/>
        <path d="M 640 134 L 648 130 L 640 126" fill="none" stroke="#000000" stroke-miterlimit="10"
              pointer-events="none"/>
        <path d="M 720 262 L 700 262 Q 690 262 681.81 256.27 L 675.9 252.13 Q 670 248 660 248 L 640 248" fill="none"
              stroke="#000000" stroke-miterlimit="10" pointer-events="none"/>
        <ellipse cx="652" cy="248" rx="3" ry="3" fill="#ffffff" stroke="#000000" pointer-events="none"/>
        <path d="M 640 252 L 648 248 L 640 244" fill="none" stroke="#000000" stroke-miterlimit="10"
              pointer-events="none"/>
        <path d="M 400 195 L 420 195 Q 430 195 433.53 204.36 L 446.47 238.64 Q 450 248 460 248 L 480 248" fill="none"
              stroke="#000000" stroke-miterlimit="10" pointer-events="none"/>
        <ellipse cx="468" cy="248" rx="3" ry="3" fill="#ffffff" stroke="#000000" pointer-events="none"/>
        <path d="M 480 244 L 472 248 L 480 252" fill="none" stroke="#000000" stroke-miterlimit="10"
              pointer-events="none"/>
        <path d="M 400 195 L 420 195 Q 430 195 432.94 185.44 L 447.06 139.56 Q 450 130 460 130 L 480 130" fill="none"
              stroke="#000000" stroke-miterlimit="10" pointer-events="none"/>
        <ellipse cx="468" cy="130" rx="3" ry="3" fill="#ffffff" stroke="#000000" pointer-events="none"/>
        <path d="M 480 126 L 472 130 L 480 134" fill="none" stroke="#000000" stroke-miterlimit="10"
              pointer-events="none"/>
    </g>
</svg>