<!DOCTYPE svg PUBLIC "-//W3C//DTD SVG 1.1//EN" "http://www.w3.org/Graphics/SVG/1.1/DTD/svg11.dtd">
<svg xmlns="http://www.w3.org/2000/svg" xmlns:xlink="http://www.w3.org/1999/xlink" width="723px" height="358px" version="1.1"><defs><clipPath id="mx-clip-34-186-121-29-0"><rect x="34" y="186" width="121" height="29"/></clipPath><clipPath id="mx-clip-4-186-21-29-0"><rect x="4" y="186" width="21" height="29"/></clipPath><clipPath id="mx-clip-34-221-121-25-0"><rect x="34" y="221" width="121" height="25"/></clipPath><clipPath id="mx-clip-34-247-121-25-0"><rect x="34" y="247" width="121" height="25"/></clipPath><clipPath id="mx-clip-34-273-121-25-0"><rect x="34" y="273" width="121" height="25"/></clipPath><clipPath id="mx-clip-34-299-121-25-0"><rect x="34" y="299" width="121" height="25"/></clipPath><clipPath id="mx-clip-34-325-121-25-0"><rect x="34" y="325" width="121" height="25"/></clipPath><clipPath id="mx-clip-273-26-121-29-0"><rect x="273" y="26" width="121" height="29"/></clipPath><clipPath id="mx-clip-243-26-21-29-0"><rect x="243" y="26" width="21" height="29"/></clipPath><clipPath id="mx-clip-273-61-121-25-0"><rect x="273" y="61" width="121" height="25"/></clipPath><clipPath id="mx-clip-273-87-121-25-0"><rect x="273" y="87" width="121" height="25"/></clipPath><clipPath id="mx-clip-273-113-121-25-0"><rect x="273" y="113" width="121" height="25"/></clipPath><clipPath id="mx-clip-514-26-121-29-0"><rect x="514" y="26" width="121" height="29"/></clipPath><clipPath id="mx-clip-484-26-21-29-0"><rect x="484" y="26" width="21" height="29"/></clipPath><clipPath id="mx-clip-514-61-121-25-0"><rect x="514" y="61" width="121" height="25"/></clipPath><clipPath id="mx-clip-514-87-121-25-0"><rect x="514" y="87" width="121" height="25"/></clipPath><clipPath id="mx-clip-273-227-121-29-0"><rect x="273" y="227" width="121" height="29"/></clipPath><clipPath id="mx-clip-243-227-21-29-0"><rect x="243" y="227" width="21" height="29"/></clipPath><clipPath id="mx-clip-273-262-121-25-0"><rect x="273" y="262" width="121" height="25"/></clipPath><clipPath id="mx-clip-273-288-121-25-0"><rect x="273" y="288" width="121" height="25"/></clipPath><clipPath id="mx-clip-34-27-121-29-0"><rect x="34" y="27" width="121" height="29"/></clipPath><clipPath id="mx-clip-4-27-21-29-0"><rect x="4" y="27" width="21" height="29"/></clipPath><clipPath id="mx-clip-34-62-121-25-0"><rect x="34" y="62" width="121" height="25"/></clipPath><clipPath id="mx-clip-34-88-121-25-0"><rect x="34" y="88" width="121" height="25"/></clipPath><clipPath id="mx-clip-514-226-202-29-0"><rect x="514" y="226" width="202" height="29"/></clipPath><clipPath id="mx-clip-484-226-21-29-0"><rect x="484" y="226" width="21" height="29"/></clipPath><clipPath id="mx-clip-514-261-202-25-0"><rect x="514" y="261" width="202" height="25"/></clipPath><clipPath id="mx-clip-514-287-202-25-0"><rect x="514" y="287" width="202" height="25"/></clipPath></defs><g transform="translate(0.5,0.5)"><rect x="0" y="160" width="160" height="196" fill="#ffffff" stroke="#000000" pointer-events="none"/><path d="M 0 186 L 0 160 L 160 160 L 160 186 Z" fill="#e0e0e0" stroke="#000000" stroke-miterlimit="10" pointer-events="none"/><g fill="#000000" font-family="Helvetica" text-anchor="middle" font-size="12px"><text x="78.91" y="176.5">user</text></g><path d="M 0 186 M 160 186 M 160 216 L 0 216" fill="none" stroke="#000000" stroke-miterlimit="10" pointer-events="none"/><g fill="#000000" font-family="Helvetica" font-weight="bold" text-decoration="underline" clip-path="url(#mx-clip-34-186-121-29-0)" font-size="12px"><text x="35.5" y="203.91">id</text></g><path d="M 0 186 M 30 186 L 30 216 M 0 216" fill="none" stroke="#000000" stroke-miterlimit="10" pointer-events="none"/><g fill="#000000" font-family="Helvetica" clip-path="url(#mx-clip-4-186-21-29-0)" font-size="12px"><text x="5.5" y="203.91">PK</text></g><path d="M 0 216 M 160 216 M 160 242 M 0 242" fill="none" stroke="#000000" stroke-miterlimit="10" pointer-events="none"/><g fill="#000000" font-family="Helvetica" clip-path="url(#mx-clip-34-221-121-25-0)" font-size="12px"><text x="35.5" y="233.5">username</text></g><path d="M 0 216 M 30 216 L 30 242 M 0 242" fill="none" stroke="#000000" stroke-miterlimit="10" pointer-events="none"/><path d="M 0 242 M 160 242 M 160 268 M 0 268" fill="none" stroke="#000000" stroke-miterlimit="10" pointer-events="none"/><g fill="#000000" font-family="Helvetica" clip-path="url(#mx-clip-34-247-121-25-0)" font-size="12px"><text x="35.5" y="259.5">email</text></g><path d="M 0 242 M 30 242 L 30 268 M 0 268" fill="none" stroke="#000000" stroke-miterlimit="10" pointer-events="none"/><path d="M 0 268 M 160 268 M 160 294 M 0 294" fill="none" stroke="#000000" stroke-miterlimit="10" pointer-events="none"/><g fill="#000000" font-family="Helvetica" clip-path="url(#mx-clip-34-273-121-25-0)" font-size="12px"><text x="35.5" y="285.5">password</text></g><path d="M 0 268 M 30 268 L 30 294 M 0 294" fill="none" stroke="#000000" stroke-miterlimit="10" pointer-events="none"/><path d="M 0 294 M 160 294 M 160 320 M 0 320" fill="none" stroke="#000000" stroke-miterlimit="10" pointer-events="none"/><g fill="#000000" font-family="Helvetica" clip-path="url(#mx-clip-34-299-121-25-0)" font-size="12px"><text x="35.5" y="311.5">first_name</text></g><path d="M 0 294 M 30 294 L 30 320 M 0 320" fill="none" stroke="#000000" stroke-miterlimit="10" pointer-events="none"/><path d="M 0 320 M 160 320 M 160 346 M 0 346" fill="none" stroke="#000000" stroke-miterlimit="10" pointer-events="none"/><g fill="#000000" font-family="Helvetica" clip-path="url(#mx-clip-34-325-121-25-0)" font-size="12px"><text x="35.5" y="337.5">last_name</text></g><path d="M 0 320 M 30 320 L 30 346 M 0 346" fill="none" stroke="#000000" stroke-miterlimit="10" pointer-events="none"/><path d="M 0 346 M 160 346 M 160 356 M 0 356" fill="none" stroke="#000000" stroke-miterlimit="10" pointer-events="none"/><path d="M 0 346 M 30 346 L 30 356 M 0 356" fill="none" stroke="#000000" stroke-miterlimit="10" pointer-events="none"/><rect x="239" y="0" width="160" height="144" fill="#ffffff" stroke="#000000" pointer-events="none"/><path d="M 239 26 L 239 0 L 399 0 L 399 26 Z" fill="#e0e0e0" stroke="#000000" stroke-miterlimit="10" pointer-events="none"/><g fill="#000000" font-family="Helvetica" text-anchor="middle" font-size="12px"><text x="317.91" y="16.5">account</text></g><path d="M 239 26 M 399 26 M 399 56 L 239 56" fill="none" stroke="#000000" stroke-miterlimit="10" pointer-events="none"/><g fill="#000000" font-family="Helvetica" font-weight="bold" text-decoration="underline" clip-path="url(#mx-clip-273-26-121-29-0)" font-size="12px"><text x="274.5" y="43.91">id</text></g><path d="M 239 26 M 269 26 L 269 56 M 239 56" fill="none" stroke="#000000" stroke-miterlimit="10" pointer-events="none"/><g fill="#000000" font-family="Helvetica" clip-path="url(#mx-clip-243-26-21-29-0)" font-size="12px"><text x="244.5" y="43.91">PK</text></g><path d="M 239 56 M 399 56 M 399 82 M 239 82" fill="none" stroke="#000000" stroke-miterlimit="10" pointer-events="none"/><g fill="#000000" font-family="Helvetica" clip-path="url(#mx-clip-273-61-121-25-0)" font-size="12px"><text x="274.5" y="73.5">title</text></g><path d="M 239 56 M 269 56 L 269 82 M 239 82" fill="none" stroke="#000000" stroke-miterlimit="10" pointer-events="none"/><path d="M 239 82 M 399 82 M 399 108 M 239 108" fill="none" stroke="#000000" stroke-miterlimit="10" pointer-events="none"/><g fill="#000000" font-family="Helvetica" clip-path="url(#mx-clip-273-87-121-25-0)" font-size="12px"><text x="274.5" y="99.5">description</text></g><path d="M 239 82 M 269 82 L 269 108 M 239 108" fill="none" stroke="#000000" stroke-miterlimit="10" pointer-events="none"/><path d="M 239 108 M 399 108 M 399 134 M 239 134" fill="none" stroke="#000000" stroke-miterlimit="10" pointer-events="none"/><g fill="#000000" font-family="Helvetica" clip-path="url(#mx-clip-273-113-121-25-0)" font-size="12px"><text x="274.5" y="125.5">amount</text></g><path d="M 239 108 M 269 108 L 269 134 M 239 134" fill="none" stroke="#000000" stroke-miterlimit="10" pointer-events="none"/><path d="M 239 134 M 399 134 M 399 144 M 239 144" fill="none" stroke="#000000" stroke-miterlimit="10" pointer-events="none"/><path d="M 239 134 M 269 134 L 269 144 M 239 144" fill="none" stroke="#000000" stroke-miterlimit="10" pointer-events="none"/><path d="M 160 258 L 180 258 Q 190 258 191.02 248.05 L 207.98 81.95 Q 209 72 219 72 L 239 72" fill="none" stroke="#000000" stroke-miterlimit="10" pointer-events="none"/><ellipse cx="227" cy="72" rx="3" ry="3" fill="#ffffff" stroke="#000000" pointer-events="none"/><path d="M 239 68 L 231 72 L 239 76" fill="none" stroke="#000000" stroke-miterlimit="10" pointer-events="none"/><rect x="480" y="0" width="160" height="118" fill="#ffffff" stroke="#000000" pointer-events="none"/><path d="M 480 26 L 480 0 L 640 0 L 640 26 Z" fill="#e0e0e0" stroke="#000000" stroke-miterlimit="10" pointer-events="none"/><g fill="#000000" font-family="Helvetica" text-anchor="middle" font-size="12px"><text x="558.91" y="16.5">transaction</text></g><path d="M 480 26 M 640 26 M 640 56 L 480 56" fill="none" stroke="#000000" stroke-miterlimit="10" pointer-events="none"/><g fill="#000000" font-family="Helvetica" font-weight="bold" text-decoration="underline" clip-path="url(#mx-clip-514-26-121-29-0)" font-size="12px"><text x="515.5" y="43.91">id</text></g><path d="M 480 26 M 510 26 L 510 56 M 480 56" fill="none" stroke="#000000" stroke-miterlimit="10" pointer-events="none"/><g fill="#000000" font-family="Helvetica" clip-path="url(#mx-clip-484-26-21-29-0)" font-size="12px"><text x="485.5" y="43.91">PK</text></g><path d="M 480 56 M 640 56 M 640 82 M 480 82" fill="none" stroke="#000000" stroke-miterlimit="10" pointer-events="none"/><g fill="#000000" font-family="Helvetica" clip-path="url(#mx-clip-514-61-121-25-0)" font-size="12px"><text x="515.5" y="73.5">type</text></g><path d="M 480 56 M 510 56 L 510 82 M 480 82" fill="none" stroke="#000000" stroke-miterlimit="10" pointer-events="none"/><path d="M 480 82 M 640 82 M 640 108 M 480 108" fill="none" stroke="#000000" stroke-miterlimit="10" pointer-events="none"/><g fill="#000000" font-family="Helvetica" clip-path="url(#mx-clip-514-87-121-25-0)" font-size="12px"><text x="515.5" y="99.5">amount</text></g><path d="M 480 82 M 510 82 L 510 108 M 480 108" fill="none" stroke="#000000" stroke-miterlimit="10" pointer-events="none"/><path d="M 480 108 M 640 108 M 640 118 M 480 118" fill="none" stroke="#000000" stroke-miterlimit="10" pointer-events="none"/><path d="M 480 108 M 510 108 L 510 118 M 480 118" fill="none" stroke="#000000" stroke-miterlimit="10" pointer-events="none"/><path d="M 399 72 L 419 72 Q 429 72 437.5 66.74 L 443.75 62.87 Q 450 59 460 59 L 480 59" fill="none" stroke="#000000" stroke-miterlimit="10" pointer-events="none"/><ellipse cx="468" cy="59" rx="3" ry="3" fill="#ffffff" stroke="#000000" pointer-events="none"/><path d="M 480 55 L 472 59 L 480 63" fill="none" stroke="#000000" stroke-miterlimit="10" pointer-events="none"/><rect x="239" y="201" width="160" height="118" fill="#ffffff" stroke="#000000" pointer-events="none"/><path d="M 239 227 L 239 201 L 399 201 L 399 227 Z" fill="#e0e0e0" stroke="#000000" stroke-miterlimit="10" pointer-events="none"/><g fill="#000000" font-family="Helvetica" text-anchor="middle" font-size="12px"><text x="317.91" y="217.5">transaction_category</text></g><path d="M 239 227 M 399 227 M 399 257 L 239 257" fill="none" stroke="#000000" stroke-miterlimit="10" pointer-events="none"/><g fill="#000000" font-family="Helvetica" font-weight="bold" text-decoration="underline" clip-path="url(#mx-clip-273-227-121-29-0)" font-size="12px"><text x="274.5" y="244.91">id</text></g><path d="M 239 227 M 269 227 L 269 257 M 239 257" fill="none" stroke="#000000" stroke-miterlimit="10" pointer-events="none"/><g fill="#000000" font-family="Helvetica" clip-path="url(#mx-clip-243-227-21-29-0)" font-size="12px"><text x="244.5" y="244.91">PK</text></g><path d="M 239 257 M 399 257 M 399 283 M 239 283" fill="none" stroke="#000000" stroke-miterlimit="10" pointer-events="none"/><g fill="#000000" font-family="Helvetica" clip-path="url(#mx-clip-273-262-121-25-0)" font-size="12px"><text x="274.5" y="274.5">type</text></g><path d="M 239 257 M 269 257 L 269 283 M 239 283" fill="none" stroke="#000000" stroke-miterlimit="10" pointer-events="none"/><path d="M 239 283 M 399 283 M 399 309 M 239 309" fill="none" stroke="#000000" stroke-miterlimit="10" pointer-events="none"/><g fill="#000000" font-family="Helvetica" clip-path="url(#mx-clip-273-288-121-25-0)" font-size="12px"><text x="274.5" y="300.5">title</text></g><path d="M 239 283 M 269 283 L 269 309 M 239 309" fill="none" stroke="#000000" stroke-miterlimit="10" pointer-events="none"/><path d="M 239 309 M 399 309 M 399 319 M 239 319" fill="none" stroke="#000000" stroke-miterlimit="10" pointer-events="none"/><path d="M 239 309 M 269 309 L 269 319 M 239 319" fill="none" stroke="#000000" stroke-miterlimit="10" pointer-events="none"/><path d="M 160 258 L 180 258 Q 190 258 199.5 259 L 204.25 259.5 Q 209 260 219 260 L 239 260" fill="none" stroke="#000000" stroke-miterlimit="10" pointer-events="none"/><ellipse cx="227" cy="260" rx="3" ry="3" fill="#ffffff" stroke="#000000" pointer-events="none"/><path d="M 239 256 L 231 260 L 239 264" fill="none" stroke="#000000" stroke-miterlimit="10" pointer-events="none"/><rect x="0" y="1" width="160" height="118" fill="#ffffff" stroke="#000000" pointer-events="none"/><path d="M 0 27 L 0 1 L 160 1 L 160 27 Z" fill="#e0e0e0" stroke="#000000" stroke-miterlimit="10" pointer-events="none"/><g fill="#000000" font-family="Helvetica" text-anchor="middle" font-size="12px"><text x="78.91" y="17.5">currency</text></g><path d="M 0 27 M 160 27 M 160 57 L 0 57" fill="none" stroke="#000000" stroke-miterlimit="10" pointer-events="none"/><g fill="#000000" font-family="Helvetica" font-weight="bold" text-decoration="underline" clip-path="url(#mx-clip-34-27-121-29-0)" font-size="12px"><text x="35.5" y="44.91">id</text></g><path d="M 0 27 M 30 27 L 30 57 M 0 57" fill="none" stroke="#000000" stroke-miterlimit="10" pointer-events="none"/><g fill="#000000" font-family="Helvetica" clip-path="url(#mx-clip-4-27-21-29-0)" font-size="12px"><text x="5.5" y="44.91">PK</text></g><path d="M 0 57 M 160 57 M 160 83 M 0 83" fill="none" stroke="#000000" stroke-miterlimit="10" pointer-events="none"/><g fill="#000000" font-family="Helvetica" clip-path="url(#mx-clip-34-62-121-25-0)" font-size="12px"><text x="35.5" y="74.5">title</text></g><path d="M 0 57 M 30 57 L 30 83 M 0 83" fill="none" stroke="#000000" stroke-miterlimit="10" pointer-events="none"/><path d="M 0 83 M 160 83 M 160 109 M 0 109" fill="none" stroke="#000000" stroke-miterlimit="10" pointer-events="none"/><g fill="#000000" font-family="Helvetica" clip-path="url(#mx-clip-34-88-121-25-0)" font-size="12px"><text x="35.5" y="100.5">iso4217</text></g><path d="M 0 83 M 30 83 L 30 109 M 0 109" fill="none" stroke="#000000" stroke-miterlimit="10" pointer-events="none"/><path d="M 0 109 M 160 109 M 160 119 M 0 119" fill="none" stroke="#000000" stroke-miterlimit="10" pointer-events="none"/><path d="M 0 109 M 30 109 L 30 119 M 0 119" fill="none" stroke="#000000" stroke-miterlimit="10" pointer-events="none"/><path d="M 160 60 L 180 60 Q 190 60 198.45 65.34 L 203.73 68.67 Q 209 72 219 72 L 239 72" fill="none" stroke="#000000" stroke-miterlimit="10" pointer-events="none"/><ellipse cx="227" cy="72" rx="3" ry="3" fill="#ffffff" stroke="#000000" pointer-events="none"/><path d="M 239 68 L 231 72 L 239 76" fill="none" stroke="#000000" stroke-miterlimit="10" pointer-events="none"/><path d="M 399 260 L 419 260 Q 429 260 430.04 250.05 L 448.96 68.95 Q 450 59 460 59 L 480 59" fill="none" stroke="#000000" stroke-miterlimit="10" pointer-events="none"/><ellipse cx="468" cy="59" rx="3" ry="3" fill="#ffffff" stroke="#000000" pointer-events="none"/><path d="M 480 55 L 472 59 L 480 63" fill="none" stroke="#000000" stroke-miterlimit="10" pointer-events="none"/><rect x="480" y="200" width="241" height="118" fill="#ffffff" stroke="#000000" pointer-events="none"/><path d="M 480 226 L 480 200 L 721 200 L 721 226 Z" fill="#e0e0e0" stroke="#000000" stroke-miterlimit="10" pointer-events="none"/><g fill="#000000" font-family="Helvetica" text-anchor="middle" font-size="12px"><text x="599.41" y="216.5">transaction_category_template</text></g><path d="M 480 226 M 721 226 M 721 256 L 480 256" fill="none" stroke="#000000" stroke-miterlimit="10" pointer-events="none"/><g fill="#000000" font-family="Helvetica" font-weight="bold" text-decoration="underline" clip-path="url(#mx-clip-514-226-202-29-0)" font-size="12px"><text x="515.5" y="243.91">id</text></g><path d="M 480 226 M 510 226 L 510 256 M 480 256" fill="none" stroke="#000000" stroke-miterlimit="10" pointer-events="none"/><g fill="#000000" font-family="Helvetica" clip-path="url(#mx-clip-484-226-21-29-0)" font-size="12px"><text x="485.5" y="243.91">PK</text></g><path d="M 480 256 M 721 256 M 721 282 M 480 282" fill="none" stroke="#000000" stroke-miterlimit="10" pointer-events="none"/><g fill="#000000" font-family="Helvetica" clip-path="url(#mx-clip-514-261-202-25-0)" font-size="12px"><text x="515.5" y="273.5">type</text></g><path d="M 480 256 M 510 256 L 510 282 M 480 282" fill="none" stroke="#000000" stroke-miterlimit="10" pointer-events="none"/><path d="M 480 282 M 721 282 M 721 308 M 480 308" fill="none" stroke="#000000" stroke-miterlimit="10" pointer-events="none"/><g fill="#000000" font-family="Helvetica" clip-path="url(#mx-clip-514-287-202-25-0)" font-size="12px"><text x="515.5" y="299.5">title</text></g><path d="M 480 282 M 510 282 L 510 308 M 480 308" fill="none" stroke="#000000" stroke-miterlimit="10" pointer-events="none"/><path d="M 480 308 M 721 308 M 721 318 M 480 318" fill="none" stroke="#000000" stroke-miterlimit="10" pointer-events="none"/><path d="M 480 308 M 510 308 L 510 318 M 480 318" fill="none" stroke="#000000" stroke-miterlimit="10" pointer-events="none"/></g></svg>